{"title":"Blake Shelton - Sure Be Cool If You Did [Music Video] 720p [Sbyk","uid":8611060,"size":68203965,"categoryP":"video","categoryS":"music_videos","magnet":"?xt=urn:btih:c7045ad0e93049c852952f4a8e6a4eb5510dfae5&amp;dn=Blake+Shelton+-+Sure+Be+Cool+If+You+Did+%5BMusic+Video%5D+720p+%5BSbyk&amp;tr=udp%3A%2F%2Ftracker.openbittorrent.com%3A80&amp;tr=udp%3A%2F%2Fopen.demonii.com%3A1337&amp;tr=udp%3A%2F%2Ftracker.coppersurfer.tk%3A6969&amp;tr=udp%3A%2F%2Fexodus.desync.com%3A6969","seeders":1,"leechers":0,"uploader":"Sbyky","files":-1,"time":1372135816,"description":"[IMG]http://yuq.me/users/18/139/8VqeAfy2ko.png[/IMG]\n\nGeneral\nComplete name                            : Blake Shelton - Sure Be Cool If You Did [Music Video] 720p [Sbyky].mp4\nFormat                                   : MPEG-4\nFormat profile                           : Base Media / Version 2\nCodec ID                                 : mp42\nFile size                                : 65.0 MiB\nDuration                                 : 3mn 39s\nOverall bit rate mode                    : Variable\nOverall bit rate                         : 2 482 Kbps\nEncoded date                             : UTC 2013-04-08 11:29:32\nTagged date                              : UTC 2013-04-08 11:29:32\n\nVideo\nID                                       : 1\nFormat                                   : AVC\nFormat/Info                              : Advanced Video Codec\nFormat profile                           : &lt;a class=&quot;__cf_email__&quot; href=&quot;/cdn-cgi/l/email-protection&quot; data-cfemail=&quot;9ad2f3fdf2dad6a9b4ab&quot;&gt;[email&amp;#160;protected]&lt;/a&gt;&lt;script cf-hash='f9e31' type=&quot;text/javascript&quot;&gt;\n/* &lt;![CDATA[ */!function(){try{var t=&quot;currentScript&quot;in document?document.currentScript:function(){for(var t=document.getElementsByTagName(&quot;script&quot;),e=t.length;e--;)if(t[e].getAttribute(&quot;cf-hash&quot;))return t[e]}();if(t&amp;&amp;t.previousSibling){var e,r,n,i,c=t.previousSibling,a=c.getAttribute(&quot;data-cfemail&quot;);if(a){for(e=&quot;&quot;,r=parseInt(a.substr(0,2),16),n=2;a.length-n;n+=2)i=parseInt(a.substr(n,2),16)^r,e+=String.fromCharCode(i);e=document.createTextNode(e),c.parentNode.replaceChild(e,c)}}}catch(u){}}();/* ]]&gt; */&lt;/script&gt;\nFormat settings, CABAC                   : Yes\nFormat settings, ReFrames                : 1 frame\nCodec ID                                 : avc1\nCodec ID/Info                            : Advanced Video Coding\nDuration                                 : 3mn 39s\nBit rate                                 : 2 288 Kbps\nMaximum bit rate                         : 6 059 Kbps\nWidth                                    : 1 280 pixels\nHeight                                   : 720 pixels\nDisplay aspect ratio                     : 16:9\nFrame rate mode                          : Constant\nFrame rate                               : 29.970 fps\nColor space                              : YUV\nChroma subsampling                       : 4:2:0\nBit depth                                : 8 bits\nScan type                                : Progressive\nBits/(Pixel*Frame)                       : 0.083\nStream size                              : 59.9 MiB (92%)\nTagged date                              : UTC 2013-04-08 11:29:39\n\nAudio\nID                                       : 2\nFormat                                   : AAC\nFormat/Info                              : Advanced Audio Codec\nFormat profile                           : LC\nCodec ID                                 : 40\nDuration                                 : 3mn 39s\nBit rate mode                            : Variable\nBit rate                                 : 192 Kbps\nMaximum bit rate                         : 201 Kbps\nChannel(s)                               : 2 channels\nChannel positions                        : Front: L R\nSampling rate                            : 44.1 KHz\nCompression mode                         : Lossy\nStream size                              : 5.03 MiB (8%)\nTitle                                    : IsoMedia File Produced by Google, 5-11-2011\nEncoded date                             : UTC 2013-04-08 11:29:38\nTagged date                              : UTC 2013-04-08 11:29:39\n\nShared By Sbyky\n[IMG]http://yuq.me/users/18/139/0aq32UMZvX.gif[/IMG]\n[IMG]http://yuq.me/users/18/139/bQg62viaEG.gif[/IMG]","torrent":{"xt":"urn:btih:c7045ad0e93049c852952f4a8e6a4eb5510dfae5","amp;dn":"Blake+Shelton+-+Sure+Be+Cool+If+You+Did+%5BMusic+Video%5D+720p+%5BSbyk","amp;tr":["udp%3A%2F%2Ftracker.openbittorrent.com%3A80","udp%3A%2F%2Fopen.demonii.com%3A1337","udp%3A%2F%2Ftracker.coppersurfer.tk%3A6969","udp%3A%2F%2Fexodus.desync.com%3A6969"],"infoHash":"c7045ad0e93049c852952f4a8e6a4eb5510dfae5","infoHashBuffer":{"type":"Buffer","data":[199,4,90,208,233,48,73,200,82,149,47,74,142,106,78,181,81,13,250,229]},"announce":[],"urlList":[]}}